<?xml version="1.0" encoding="utf-8"?>
<!-- Generator: Adobe Illustrator 26.3.1, SVG Export Plug-In . SVG Version: 6.00 Build 0)  -->
<svg version="1.1" id="Camada_1" xmlns="http://www.w3.org/2000/svg" xmlns:xlink="http://www.w3.org/1999/xlink" x="0px" y="0px"
	 viewBox="0 0 1000 1000" style="enable-background:new 0 0 1000 1000;" xml:space="preserve">
<style type="text/css">
	.st0{fill:#231F20;}
	.st1{fill:url(#SVGID_1_);}
	.st2{fill:url(#SVGID_00000175295170006414189700000001544801807442050458_);}
	.st3{fill:url(#SVGID_00000166663833688073797220000002982830904118930086_);}
	.st4{fill:url(#SVGID_00000095339008213124502340000000025155536283770026_);}
	.st5{fill:#FFFFFF;stroke:#FFFFFF;stroke-width:2.7368;stroke-miterlimit:10;}
	.st6{fill:url(#SVGID_00000150807861249599199920000004224451869721017472_);}
</style>
<rect x="-0.08" y="-0.23" class="st0" width="1000.08" height="1000.23"/>
<g>
	<g>
		<linearGradient id="SVGID_1_" gradientUnits="userSpaceOnUse" x1="551.6443" y1="563.7599" x2="425.8907" y2="32.6358">
			<stop  offset="0" style="stop-color:#FFFFFF"/>
			<stop  offset="1" style="stop-color:#FFFFFF;stop-opacity:0"/>
		</linearGradient>
		<polygon class="st1" points="680.4,404.97 445.65,99.88 319.53,285.99 554.27,591.07 		"/>
	</g>
	<g>
		
			<linearGradient id="SVGID_00000168815488743864827890000001255501075353761697_" gradientUnits="userSpaceOnUse" x1="201.8753" y1="725.3242" x2="652.6856" y2="438.8718">
			<stop  offset="0" style="stop-color:#FFFFFF"/>
			<stop  offset="1" style="stop-color:#FFFFFF;stop-opacity:0"/>
		</linearGradient>
		
			<rect x="226.48" y="591.07" style="fill:url(#SVGID_00000168815488743864827890000001255501075353761697_);" width="186.1" height="118.98"/>
	</g>
	<g>
		
			<linearGradient id="SVGID_00000050625108671004944170000005168702006546777480_" gradientUnits="userSpaceOnUse" x1="589.4784" y1="595.6721" x2="-133.9747" y2="76.3836">
			<stop  offset="0" style="stop-color:#FFFFFF"/>
			<stop  offset="1" style="stop-color:#FFFFFF;stop-opacity:0"/>
		</linearGradient>
		<polygon style="fill:url(#SVGID_00000050625108671004944170000005168702006546777480_);" points="226.48,591.07 554.27,591.07 
			680.4,404.97 352.6,404.97 		"/>
	</g>
	<g>
		
			<linearGradient id="SVGID_00000182520757545308296670000003844623369225378467_" gradientUnits="userSpaceOnUse" x1="299.8202" y1="316.24" x2="924.1498" y2="67.6917">
			<stop  offset="0" style="stop-color:#FFFFFF"/>
			<stop  offset="1" style="stop-color:#FFFFFF;stop-opacity:0"/>
		</linearGradient>
		<polygon style="fill:url(#SVGID_00000182520757545308296670000003844623369225378467_);" points="319.53,285.99 773.45,285.99 
			773.45,99.88 445.65,99.88 		"/>
	</g>
	<g>
		<path class="st5" d="M564.82,850.55v41.76h48.06v4.87h-53.06V801.5h53.06v4.87h-48.06v39.33h43.79v4.87H564.82z"/>
		<path class="st5" d="M752.22,801.5v4.87h-34.33v90.82h-5.14v-90.82h-34.33v-4.87H752.22z"/>
		<path class="st5" d="M468.05,844.74c-19.19-9.46-24.19-13.92-24.19-24.19c0-9.46,8.38-17.03,20.41-17.03
			c9.46,0,16.76,2.97,24.33,8.11h0.27v-5.9c-7.08-4.3-14.82-6.94-24.33-6.94c-15.41,0-26.08,9.19-26.08,22.03
			c0,12.03,6.22,18.92,24.73,27.57c20.41,9.6,25.68,15.95,25.68,26.49c0,10.81-9.33,20.27-23.79,20.27
			c-10.14,0-19.46-4.6-27.16-10.81v6.3c7.29,5.24,16.79,9.24,27.03,9.24c17.43,0,29.33-10.95,29.33-25.41
			C494.27,862.18,488.46,854.74,468.05,844.74z"/>
	</g>
	<polygon class="st5" points="231.48,892.31 231.48,876.53 231.48,850.55 272.97,850.55 272.97,845.69 231.48,845.69 231.48,806.36 
		276.08,806.36 276.08,801.5 226.48,801.5 226.48,897.18 231.48,897.18 	"/>
	
		<linearGradient id="SVGID_00000101824045586100269170000005727385836299764098_" gradientUnits="userSpaceOnUse" x1="348.3076" y1="857.2943" x2="368.8667" y2="816.1761">
		<stop  offset="0" style="stop-color:#FFFFFF"/>
		<stop  offset="1" style="stop-color:#FFFFFF;stop-opacity:0"/>
	</linearGradient>
	<polygon style="fill:url(#SVGID_00000101824045586100269170000005727385836299764098_);" points="357.56,859.88 342.68,838.8 
		372.44,838.8 	"/>
</g>
</svg>
