<svg width="87" height="127" viewBox="0 0 87 127" fill="none" xmlns="http://www.w3.org/2000/svg">
<g clip-path="url(#clip0_1_2)">
<path d="M71.84 48.28L34.69 0L14.73 29.45L51.88 77.74L71.84 48.28Z" fill="url(#paint0_linear_1_2)"/>
<path d="M29.45 77.74H0V96.57H29.45V77.74Z" fill="url(#paint1_linear_1_2)"/>
<path d="M0 77.74H51.88L71.84 48.28H19.96L0 77.74Z" fill="url(#paint2_linear_1_2)"/>
<path d="M14.73 29.45H86.56V0H34.69L14.73 29.45Z" fill="url(#paint3_linear_1_2)"/>
<path d="M53.55 118.8V125.41H61.16V126.18H52.76V111.04H61.16V111.81H53.55V118.03H60.48V118.8H53.55Z" fill="#231F20"/>
<path d="M83.2 111.04V111.81H77.77V126.18H76.96V111.81H71.53V111.04H83.2Z" fill="#231F20"/>
<path d="M38.23 117.88C35.19 116.38 34.4 115.68 34.4 114.05C34.4 112.55 35.73 111.36 37.63 111.36C39.13 111.36 40.28 111.83 41.48 112.64H41.52V111.71C40.4 111.03 39.17 110.61 37.67 110.61C35.23 110.61 33.54 112.06 33.54 114.1C33.54 116 34.52 117.09 37.45 118.46C40.68 119.98 41.51 120.98 41.51 122.65C41.51 124.36 40.03 125.86 37.75 125.86C36.15 125.86 34.67 125.13 33.45 124.15V125.15C34.6 125.98 36.11 126.61 37.73 126.61C40.49 126.61 42.37 124.88 42.37 122.59C42.38 120.64 41.46 119.46 38.23 117.88Z" fill="#231F20"/>
<path d="M0.79 125.41V122.91V118.8H7.36V118.03H0.79V111.81H7.85V111.04H0V126.18H0.79V125.41Z" fill="#231F20"/>
<path d="M20.74 120.28L18.39 116.94H23.1L20.74 120.28Z" fill="url(#paint4_linear_1_2)"/>
</g>
<defs>
<linearGradient id="paint0_linear_1_2" x1="51.4609" y1="73.4128" x2="31.5592" y2="-10.6425" gradientUnits="userSpaceOnUse">
<stop stop-color="#231F20"/>
<stop offset="1" stop-color="#231F20" stop-opacity="0"/>
</linearGradient>
<linearGradient id="paint1_linear_1_2" x1="-3.8933" y1="98.9818" x2="67.4516" y2="53.6481" gradientUnits="userSpaceOnUse">
<stop stop-color="#231F20"/>
<stop offset="1" stop-color="#231F20" stop-opacity="0"/>
</linearGradient>
<linearGradient id="paint2_linear_1_2" x1="57.4484" y1="78.4632" x2="-57.0447" y2="-3.719" gradientUnits="userSpaceOnUse">
<stop stop-color="#231F20"/>
<stop offset="1" stop-color="#231F20" stop-opacity="0"/>
</linearGradient>
<linearGradient id="paint3_linear_1_2" x1="11.6073" y1="34.2405" x2="110.413" y2="-5.0946" gradientUnits="userSpaceOnUse">
<stop stop-color="#231F20"/>
<stop offset="1" stop-color="#231F20" stop-opacity="0"/>
</linearGradient>
<linearGradient id="paint4_linear_1_2" x1="19.2809" y1="119.867" x2="22.5346" y2="113.36" gradientUnits="userSpaceOnUse">
<stop stop-color="#231F20"/>
<stop offset="1" stop-color="#231F20" stop-opacity="0"/>
</linearGradient>
<clipPath id="clip0_1_2">
<rect width="86.56" height="126.61" fill="white"/>
</clipPath>
</defs>
</svg>
